<svg viewBox="44 40 152 136" fill="none" xmlns="http://www.w3.org/2000/svg"><defs><linearGradient id="lscSun" x1="0" y1="0" x2="0" y2="1"><stop offset="0" stop-color="#E6BC62"/><stop offset="0.5" stop-color="#CFA152"/><stop offset="1" stop-color="#BC8E4E"/></linearGradient></defs><line x1="81.2" y1="103.9" x2="60.3" y2="101.7" stroke="#C99A57" stroke-width="4.6" stroke-linecap="round"/><line x1="85.3" y1="90.3" x2="66.5" y2="80.8" stroke="currentColor" stroke-width="4.6" stroke-linecap="round"/><line x1="93.9" y1="79.0" x2="79.9" y2="63.4" stroke="currentColor" stroke-width="4.6" stroke-linecap="round"/><line x1="106.0" y1="71.6" x2="98.5" y2="52.0" stroke="currentColor" stroke-width="4.6" stroke-linecap="round"/><line x1="120.0" y1="69.0" x2="120.0" y2="48.0" stroke="currentColor" stroke-width="4.6" stroke-linecap="round"/><line x1="134.0" y1="71.6" x2="141.5" y2="52.0" stroke="currentColor" stroke-width="4.6" stroke-linecap="round"/><line x1="146.1" y1="79.0" x2="160.1" y2="63.4" stroke="currentColor" stroke-width="4.6" stroke-linecap="round"/><line x1="154.7" y1="90.3" x2="173.5" y2="80.8" stroke="currentColor" stroke-width="4.6" stroke-linecap="round"/><line x1="158.8" y1="103.9" x2="179.7" y2="101.7" stroke="#C99A57" stroke-width="4.6" stroke-linecap="round"/><path d="M 90 108 A 30 30 0 0 1 150 108 Z" fill="url(#lscSun)"/><rect x="68.0" y="103.5" width="104.0" height="9.0" rx="4.5" fill="currentColor"/><rect x="172.0" y="96.0" width="8.0" height="24.0" rx="4.0" fill="currentColor"/><rect x="184.0" y="89.0" width="12.0" height="38.0" rx="4.0" fill="currentColor"/><rect x="200.0" y="98.0" width="7.0" height="20.0" rx="3.0" fill="currentColor"/><rect x="60.0" y="96.0" width="8.0" height="24.0" rx="4.0" fill="currentColor"/><rect x="44.0" y="89.0" width="12.0" height="38.0" rx="4.0" fill="currentColor"/><rect x="33.0" y="98.0" width="7.0" height="20.0" rx="3.0" fill="currentColor"/></svg>